<?xml version="1.0" standalone="no"?>
<!DOCTYPE svg PUBLIC "-//W3C//DTD SVG 20010904//EN"
 "http://www.w3.org/TR/2001/REC-SVG-20010904/DTD/svg10.dtd">
<svg version="1.0" xmlns="http://www.w3.org/2000/svg"
 width="500.000000pt" height="500.000000pt" viewBox="0 0 500.000000 500.000000"
 preserveAspectRatio="xMidYMid meet">
<metadata>
Created by potrace 1.14, written by Peter Selinger 2001-2017
</metadata>
<g transform="translate(0.000000,500.000000) scale(0.100000,-0.100000)"
fill="#000000" stroke="none">
<path d="M2125 3916 c-58 -26 -109 -80 -139 -145 -27 -60 -28 -174 -2 -249
l18 -53 -26 -62 c-44 -106 -58 -189 -54 -323 2 -82 -1 -125 -9 -135 -22 -27
-25 -85 -9 -149 19 -75 82 -197 107 -211 21 -11 26 -58 9 -89 -8 -15 -5 -19
25 -24 19 -4 48 -18 64 -32 28 -24 32 -24 58 -10 58 32 59 33 39 55 -10 11
-20 38 -23 60 l-6 41 46 0 46 0 6 -44 c4 -24 4 -53 0 -65 -5 -18 -2 -21 22
-21 16 0 38 -6 49 -14 11 -8 36 -17 57 -21 33 -6 37 -5 43 19 3 14 8 26 11 26
9 0 69 -33 84 -47 9 -7 46 -22 81 -32 l66 -19 18 25 c13 17 39 30 84 41 36 9
79 27 96 39 17 12 43 27 58 32 23 9 26 8 32 -14 7 -30 3 -29 43 -9 19 10 49
15 76 12 41 -3 44 -1 49 26 3 16 6 39 6 52 0 15 27 50 83 106 92 92 141 179
177 310 68 248 27 595 -91 780 -88 137 -236 198 -383 157 -60 -17 -150 -111
-170 -179 -21 -71 -20 -145 3 -219 l19 -60 -34 -89 c-43 -116 -57 -233 -43
-361 10 -87 9 -95 -9 -113 -18 -19 -19 -18 -54 14 l-35 33 13 50 c79 297 2
693 -165 847 -70 65 -127 88 -220 88 -48 0 -80 -7 -116 -24z m241 -41 c86 -50
164 -183 205 -347 30 -120 37 -335 14 -453 -9 -49 -18 -92 -21 -96 -2 -4 -21
-3 -41 2 -52 11 -105 -3 -167 -44 l-53 -35 -12 38 c-15 52 -56 99 -106 121
-48 22 -140 24 -175 4 -14 -8 -29 -14 -34 -15 -17 0 1 212 24 285 12 39 24 72
25 74 2 1 31 -26 64 -61 33 -35 82 -76 110 -92 59 -32 187 -77 195 -68 13 13
3 20 -52 40 -105 39 -214 127 -266 216 -57 97 -71 247 -31 329 19 40 61 88
102 114 56 37 144 32 219 -12z m785 1 c94 -63 161 -173 206 -342 24 -89 26
-117 26 -269 0 -143 -3 -183 -21 -250 -30 -109 -93 -234 -151 -297 l-48 -52
-6 107 c-8 127 -19 156 -86 222 l-51 50 -73 0 c-66 0 -80 -4 -125 -32 l-52
-32 -6 25 c-13 53 3 267 25 337 12 37 26 67 31 67 6 0 10 -4 10 -8 0 -20 115
-122 169 -151 67 -36 171 -72 183 -65 18 11 5 22 -51 43 -128 47 -234 141
-290 261 -23 48 -26 68 -26 156 0 94 2 103 30 149 34 56 96 104 146 114 47 10
116 -5 160 -33z m-88 -1073 c2 -10 8 -26 12 -36 6 -13 3 -16 -9 -11 -9 3 -16
1 -16 -4 0 -6 9 -14 21 -17 18 -6 20 -12 14 -43 -12 -69 -14 -72 -51 -72 -65
0 -170 75 -162 117 3 16 65 44 132 58 11 3 24 9 30 15 15 15 23 12 29 -7z
m-655 -100 c-12 -12 -28 -23 -35 -23 -8 0 -16 -7 -19 -15 -8 -19 -24 -20 -24
-1 0 8 12 19 28 24 23 9 24 11 6 11 -20 1 -21 4 -11 50 l9 50 34 -36 34 -36
-22 -24z m138 -8 c13 -20 19 -23 31 -14 11 10 18 9 30 -4 15 -15 15 -18 1 -34
-9 -10 -19 -34 -23 -53 -12 -64 -17 -72 -51 -86 -44 -19 -104 -18 -132 2 -12
8 -31 33 -42 54 l-20 38 48 31 c26 16 61 44 77 61 35 37 59 38 81 5z m-472
-40 c18 -14 18 -15 -7 -26 -22 -10 -31 -9 -52 5 -14 9 -25 21 -25 26 0 15 62
11 84 -5z m196 -10 c0 -21 -5 -25 -31 -25 l-30 0 28 25 c35 30 33 30 33 0z
m718 -52 c57 -6 63 -14 30 -37 -28 -20 -88 -20 -132 -2 -43 18 -48 28 -41 70
l7 34 41 -29 c28 -19 60 -31 95 -36z"/>
<path d="M2903 2753 c-21 -8 -15 -22 7 -16 11 3 20 9 20 14 0 10 -8 10 -27 2z"/>
<path d="M2910 2715 c0 -8 5 -15 10 -15 6 0 10 7 10 15 0 8 -4 15 -10 15 -5 0
-10 -7 -10 -15z"/>
<path d="M3047 2724 c-8 -8 1 -24 14 -24 5 0 9 7 9 15 0 15 -12 20 -23 9z"/>
<path d="M2490 2696 c0 -2 9 -6 20 -9 11 -3 20 -1 20 4 0 5 -9 9 -20 9 -11 0
-20 -2 -20 -4z"/>
<path d="M2495 2669 c-10 -15 3 -25 16 -12 7 7 7 13 1 17 -6 3 -14 1 -17 -5z"/>
<path d="M1366 3820 c-155 -33 -311 -123 -353 -203 -12 -23 -12 -31 -2 -37 19
-13 32 -2 54 43 54 110 346 218 510 188 148 -28 159 -81 38 -191 -88 -81 -342
-247 -356 -233 -4 3 -7 71 -7 150 0 136 -1 143 -20 143 -19 0 -20 -7 -20 -164
l0 -165 -35 -27 c-44 -33 -44 -51 -2 -62 l32 -8 5 -190 c4 -159 7 -189 20
-189 13 0 16 30 21 190 3 105 6 192 7 194 1 2 39 1 85 -2 149 -11 288 -62 369
-135 43 -38 86 -119 71 -132 -4 -4 -37 -13 -73 -20 -113 -22 -331 -98 -445
-155 -287 -142 -403 -317 -304 -457 25 -35 110 -75 177 -83 l53 -7 -45 -48
c-224 -239 -357 -722 -266 -964 46 -121 150 -185 284 -173 182 15 368 155 488
368 l48 84 0 -130 c0 -71 -5 -175 -10 -230 -8 -81 -7 -102 4 -113 9 -9 19 -11
30 -5 8 5 56 70 106 146 103 156 198 263 284 319 33 21 63 38 68 38 4 0 8 -26
8 -57 0 -188 68 -368 161 -430 57 -38 142 -39 212 -3 54 27 150 118 207 195
88 119 184 321 254 536 l44 134 -5 -385 c-3 -242 -1 -390 5 -399 6 -8 16 -11
24 -8 12 4 16 57 22 299 6 283 18 550 32 690 6 67 6 68 42 78 55 15 71 13 65
-9 -3 -11 2 -21 12 -25 11 -4 21 4 33 27 9 17 34 48 54 69 43 42 160 103 182
95 9 -4 18 -2 22 4 10 16 46 27 133 39 137 19 242 -13 249 -74 4 -36 -31 -81
-116 -150 -69 -55 -298 -206 -313 -206 -5 0 -9 65 -9 145 0 122 -3 147 -15
152 -9 3 -19 2 -23 -2 -4 -3 -8 -80 -10 -170 l-3 -164 -36 -27 c-34 -25 -35
-28 -18 -41 11 -7 26 -13 35 -13 14 0 18 -17 23 -112 4 -62 7 -150 7 -196 0
-74 2 -83 18 -80 15 3 17 22 20 197 l2 194 88 -6 c148 -10 289 -60 368 -129
38 -33 89 -127 76 -139 -4 -3 -36 -12 -72 -18 -206 -39 -522 -175 -645 -278
-121 -102 -166 -207 -127 -295 36 -82 117 -122 239 -121 147 2 296 75 434 212
135 135 228 309 229 424 0 33 5 49 15 53 19 8 20 34 1 34 -7 0 -26 25 -40 55
-62 125 -237 211 -476 232 -65 6 -85 12 -88 24 -2 11 42 44 138 105 308 195
407 308 324 373 -69 54 -247 66 -375 26 -18 -6 -19 3 -19 248 0 139 3 256 6
259 3 3 32 -5 64 -18 70 -28 401 -117 408 -109 13 13 -26 29 -198 81 -101 30
-201 64 -222 76 -100 57 -65 102 445 578 103 96 187 180 187 187 0 24 -28 13
-76 -28 -114 -98 -551 -510 -572 -538 -12 -17 -27 -31 -32 -31 -6 0 -11 110
-12 278 -3 269 -4 277 -23 277 -20 0 -20 -8 -23 -640 l-2 -640 -55 -22 c-30
-11 -55 -18 -55 -15 0 3 18 25 41 48 l41 42 -50 3 c-28 2 -49 1 -47 -2 2 -3
-15 -10 -39 -17 -37 -9 -54 -24 -120 -107 -43 -52 -79 -95 -79 -95 -1 0 -1 43
1 95 3 81 1 96 -13 101 -30 12 -43 -19 -70 -171 -72 -408 -181 -716 -329 -939
-100 -151 -236 -257 -309 -242 -72 15 -136 104 -173 241 -24 91 -29 309 -10
430 23 146 32 174 56 168 18 -5 20 0 20 61 0 69 28 145 64 175 23 19 20 31
-10 31 -26 0 -84 -53 -84 -77 0 -6 -6 -16 -12 -20 -15 -9 -88 -99 -88 -107 0
-3 9 -13 19 -23 19 -18 19 -20 0 -108 -10 -49 -21 -127 -25 -172 -5 -57 -11
-83 -19 -83 -24 0 -126 -59 -171 -99 -58 -51 -148 -159 -207 -249 -27 -41 -50
-72 -51 -70 -2 1 0 89 5 193 4 105 8 279 8 388 l1 197 24 0 c15 0 38 16 65 45
22 24 41 47 41 50 0 8 -81 44 -97 45 -7 0 -13 -7 -13 -15 0 -8 -4 -15 -9 -15
-13 0 -21 26 -21 66 0 31 2 33 23 25 13 -5 47 -16 75 -25 l52 -15 -78 96 c-74
92 -77 99 -87 167 -9 61 -13 71 -30 71 -16 0 -21 -9 -26 -45 -3 -25 -7 -40 -7
-34 -1 6 -13 9 -27 6 -15 -2 -25 0 -25 7 0 7 -9 9 -26 5 -20 -5 -25 -4 -19 6
6 9 1 10 -16 5 -35 -11 -35 -10 5 -58 20 -25 34 -51 31 -59 -6 -15 66 -207 93
-248 14 -20 17 -60 20 -217 l4 -192 -43 -81 c-63 -118 -159 -241 -232 -296
-34 -26 -100 -65 -147 -88 -75 -36 -93 -41 -157 -41 -63 0 -76 3 -114 30 -61
43 -98 119 -108 221 -21 220 55 500 198 720 64 100 159 199 199 209 15 4 56
20 91 37 l65 31 18 -23 c37 -45 17 -152 -61 -333 -27 -62 -45 -116 -40 -121
16 -18 39 5 72 71 55 108 89 227 91 311 1 69 -1 75 -27 98 -15 13 -22 24 -15
24 8 0 50 35 94 79 135 132 224 286 246 426 6 41 15 75 20 75 4 0 8 7 8 15 0
8 -6 15 -13 15 -7 0 -23 22 -36 49 -57 126 -244 220 -477 238 -79 6 -102 16
-86 40 4 5 60 42 124 81 200 124 323 226 353 293 17 36 17 40 1 64 -45 69
-200 92 -370 55z m423 -940 c-6 -30 -30 -96 -54 -146 -87 -180 -231 -325 -352
-353 -28 -7 -73 -27 -100 -44 -41 -27 -57 -31 -113 -31 -116 0 -174 53 -167
154 2 30 11 72 21 92 71 149 327 297 661 383 110 29 118 25 104 -55z m1601
-515 c7 -9 11 -17 9 -18 -52 -40 -67 -46 -73 -31 -8 20 19 64 38 64 7 0 19 -7
26 -15z m-1690 -208 c0 -5 -7 -4 -15 3 -8 7 -15 20 -15 29 1 13 3 13 15 -3 8
-11 15 -24 15 -29z m2340 -645 c0 -20 -11 -68 -24 -105 -40 -111 -101 -204
-200 -303 -77 -76 -107 -99 -186 -138 -115 -56 -193 -73 -266 -57 -75 17 -106
54 -112 131 -4 50 0 69 22 115 53 108 205 218 419 303 109 43 325 104 339 96
5 -3 8 -22 8 -42z"/>
<path d="M3025 2450 c-23 -6 -16 -8 35 -9 45 0 60 2 50 9 -17 11 -42 11 -85 0z"/>
<path d="M2028 2383 c7 -3 16 -2 19 1 4 3 -2 6 -13 5 -11 0 -14 -3 -6 -6z"/>
<path d="M1918 2373 c7 -3 16 -2 19 1 4 3 -2 6 -13 5 -11 0 -14 -3 -6 -6z"/>
<path d="M2060 2196 c0 -8 23 -43 51 -76 49 -60 51 -61 66 -41 13 19 10 25
-41 76 -55 56 -76 67 -76 41z"/>
<path d="M1995 2187 c-4 -10 0 -27 10 -43 23 -35 28 -25 11 22 -11 31 -15 35
-21 21z"/>
</g>
</svg>
